<svg width="20" height="20" viewBox="0 0 20 20" fill="none" xmlns="http://www.w3.org/2000/svg">
<path d="M7.64401 0.227966H1.78601C0.914012 0.227966 0.200012 0.897966 0.200012 1.77197V7.50796C0.200012 8.38196 0.914012 9.18396 1.78601 9.18396H7.64401C8.51601 9.18396 9.23001 8.38196 9.23001 7.50796V1.77197C9.23001 0.897966 8.51601 0.227966 7.64401 0.227966ZM7.64401 7.59596H1.78601V1.77197H7.64401V7.59596ZM7.64401 10.816H1.78601C0.914012 10.816 0.200012 11.532 0.200012 12.404V18.184C0.200012 19.058 0.914012 19.772 1.78601 19.772H7.64401C8.51601 19.772 9.23001 19.058 9.23001 18.184V12.404C9.23001 11.532 8.51601 10.816 7.64401 10.816ZM7.64401 18.184H1.78601V12.36H7.64401V18.184ZM18.214 0.227966H12.4C11.528 0.227966 10.77 0.897966 10.77 1.77197V7.59596C10.77 8.46996 11.528 9.18396 12.4 9.18396H18.214C19.086 9.18396 19.8 8.46996 19.8 7.59596V1.77197C19.8 0.897966 19.086 0.227966 18.214 0.227966ZM18.214 7.59596H12.4V1.77197H18.214V7.59596ZM18.038 10.816H12.356C11.484 10.816 10.77 11.532 10.77 12.404V18.184C10.77 19.058 11.484 19.772 12.356 19.772H18.214C19.086 19.772 19.8 19.058 19.8 18.184V12.404C19.8 11.532 18.91 10.816 18.038 10.816ZM18.214 18.184H12.4V12.404H18.214V18.184Z" fill="#FF7A00"/>
</svg>
