<svg width="63" height="63" viewBox="0 0 63 63" fill="none" xmlns="http://www.w3.org/2000/svg">
<path d="M47.4961 28.3008C48.8552 28.3008 49.957 27.199 49.957 25.8398C49.957 24.4807 48.8552 23.3789 47.4961 23.3789C46.137 23.3789 45.0352 24.4807 45.0352 25.8398C45.0352 27.199 46.137 28.3008 47.4961 28.3008Z" fill="#FF7A00"/>
<path d="M53.1562 4.92188H49.957V2.46094C49.957 1.10176 48.8553 0 47.4961 0C46.1369 0 45.0352 1.10176 45.0352 2.46094V4.92188H33.8379V2.46094C33.8379 1.10176 32.7361 0 31.377 0C30.0178 0 28.916 1.10176 28.916 2.46094V4.92188H17.8418V2.46094C17.8418 1.10176 16.74 0 15.3809 0C14.0217 0 12.9199 1.10176 12.9199 2.46094V4.92188H9.84375C4.41591 4.92188 0 9.33778 0 14.7656V53.1562C0 58.5841 4.41591 63 9.84375 63H28.6699C30.0291 63 31.1309 61.8982 31.1309 60.5391C31.1309 59.1799 30.0291 58.0781 28.6699 58.0781H9.84375C7.12983 58.0781 4.92188 55.8702 4.92188 53.1562V14.7656C4.92188 12.0517 7.12983 9.84375 9.84375 9.84375H12.9199V12.3047C12.9199 13.6639 14.0217 14.7656 15.3809 14.7656C16.74 14.7656 17.8418 13.6639 17.8418 12.3047V9.84375H28.916V12.3047C28.916 13.6639 30.0178 14.7656 31.377 14.7656C32.7361 14.7656 33.8379 13.6639 33.8379 12.3047V9.84375H45.0352V12.3047C45.0352 13.6639 46.1369 14.7656 47.4961 14.7656C48.8553 14.7656 49.957 13.6639 49.957 12.3047V9.84375H53.1562C55.8702 9.84375 58.0781 12.0517 58.0781 14.7656V28.793C58.0781 30.1521 59.1799 31.2539 60.5391 31.2539C61.8982 31.2539 63 30.1521 63 28.793V14.7656C63 9.33778 58.5841 4.92188 53.1562 4.92188Z" fill="#FF7A00"/>
<path d="M48.1113 33.2227C39.9016 33.2227 33.2227 39.9016 33.2227 48.1113C33.2227 56.321 39.9016 63 48.1113 63C56.321 63 63 56.321 63 48.1113C63 39.9016 56.321 33.2227 48.1113 33.2227ZM48.1113 58.0781C42.6157 58.0781 38.1445 53.6071 38.1445 48.1113C38.1445 42.6156 42.6157 38.1445 48.1113 38.1445C53.607 38.1445 58.0781 42.6156 58.0781 48.1113C58.0781 53.6071 53.607 58.0781 48.1113 58.0781Z" fill="#FF7A00"/>
<path d="M51.6797 45.6504H50.5723V43.0664C50.5723 41.7072 49.4705 40.6055 48.1113 40.6055C46.7522 40.6055 45.6504 41.7072 45.6504 43.0664V48.1113C45.6504 49.4705 46.7522 50.5723 48.1113 50.5723H51.6797C53.0389 50.5723 54.1406 49.4705 54.1406 48.1113C54.1406 46.7522 53.0389 45.6504 51.6797 45.6504Z" fill="#FF7A00"/>
<path d="M36.791 28.3008C38.1502 28.3008 39.252 27.199 39.252 25.8398C39.252 24.4807 38.1502 23.3789 36.791 23.3789C35.4319 23.3789 34.3301 24.4807 34.3301 25.8398C34.3301 27.199 35.4319 28.3008 36.791 28.3008Z" fill="#FF7A00"/>
<path d="M26.0859 39.0059C27.4451 39.0059 28.5469 37.9041 28.5469 36.5449C28.5469 35.1858 27.4451 34.084 26.0859 34.084C24.7268 34.084 23.625 35.1858 23.625 36.5449C23.625 37.9041 24.7268 39.0059 26.0859 39.0059Z" fill="#FF7A00"/>
<path d="M15.3809 28.3008C16.74 28.3008 17.8418 27.199 17.8418 25.8398C17.8418 24.4807 16.74 23.3789 15.3809 23.3789C14.0217 23.3789 12.9199 24.4807 12.9199 25.8398C12.9199 27.199 14.0217 28.3008 15.3809 28.3008Z" fill="#FF7A00"/>
<path d="M15.3809 39.0059C16.74 39.0059 17.8418 37.9041 17.8418 36.5449C17.8418 35.1858 16.74 34.084 15.3809 34.084C14.0217 34.084 12.9199 35.1858 12.9199 36.5449C12.9199 37.9041 14.0217 39.0059 15.3809 39.0059Z" fill="#FF7A00"/>
<path d="M15.3809 49.7109C16.74 49.7109 17.8418 48.6091 17.8418 47.25C17.8418 45.8909 16.74 44.7891 15.3809 44.7891C14.0217 44.7891 12.9199 45.8909 12.9199 47.25C12.9199 48.6091 14.0217 49.7109 15.3809 49.7109Z" fill="#FF7A00"/>
<path d="M26.0859 49.7109C27.4451 49.7109 28.5469 48.6091 28.5469 47.25C28.5469 45.8909 27.4451 44.7891 26.0859 44.7891C24.7268 44.7891 23.625 45.8909 23.625 47.25C23.625 48.6091 24.7268 49.7109 26.0859 49.7109Z" fill="#FF7A00"/>
<path d="M26.0859 28.3008C27.4451 28.3008 28.5469 27.199 28.5469 25.8398C28.5469 24.4807 27.4451 23.3789 26.0859 23.3789C24.7268 23.3789 23.625 24.4807 23.625 25.8398C23.625 27.199 24.7268 28.3008 26.0859 28.3008Z" fill="#FF7A00"/>
</svg>
