<svg width="21" height="20" viewBox="0 0 21 20" fill="none" xmlns="http://www.w3.org/2000/svg">
<path d="M20.2772 10.9738H3.98082L13.7347 19.4409C13.8907 19.5774 13.796 19.8308 13.5899 19.8308H11.1249C11.0163 19.8308 10.9133 19.7918 10.8325 19.7222L0.307108 10.5894C0.210708 10.5059 0.133395 10.4026 0.0804089 10.2865C0.0274225 10.1705 0 10.0444 0 9.9168C0 9.78922 0.0274225 9.66314 0.0804089 9.54708C0.133395 9.43103 0.210708 9.32773 0.307108 9.24416L10.8938 0.0557003C10.9355 0.0194931 10.9857 -3.8147e-06 11.0386 -3.8147e-06H13.5871C13.7932 -3.8147e-06 13.8879 0.256237 13.7319 0.389929L3.98082 8.85702H20.2772C20.3997 8.85702 20.5 8.95729 20.5 9.07984V10.751C20.5 10.8735 20.3997 10.9738 20.2772 10.9738Z" fill="#FF7A00"/>
</svg>
