<svg width="21" height="20" viewBox="0 0 21 20" fill="none" xmlns="http://www.w3.org/2000/svg">
<path d="M0.222818 8.85702H16.5192L6.76532 0.389932C6.60934 0.253456 6.70404 0 6.91015 0H9.37507C9.4837 0 9.58675 0.038993 9.66752 0.108624L20.1929 9.24138C20.2893 9.32494 20.3666 9.42825 20.4196 9.5443C20.4726 9.66035 20.5 9.78644 20.5 9.91401C20.5 10.0416 20.4726 10.1677 20.4196 10.2837C20.3666 10.3998 20.2893 10.5031 20.1929 10.5866L9.60625 19.7751C9.56447 19.8113 9.51433 19.8308 9.46142 19.8308H6.91293C6.70683 19.8308 6.61213 19.5746 6.7681 19.4409L16.5192 10.9738H0.222818C0.100267 10.9738 0 10.8735 0 10.751V9.07984C0 8.95729 0.100267 8.85702 0.222818 8.85702Z" fill="#FF7A00"/>
</svg>
