<svg width="23" height="23" viewBox="0 0 23 23" fill="none" xmlns="http://www.w3.org/2000/svg">
<path d="M11.5 1.91669C6.30486 1.91669 1.91666 6.3049 1.91666 11.5C1.91666 14.5561 3.44232 17.3248 5.74999 19.0939V19.1667H5.84774C7.44624 20.3598 9.40412 21.0834 11.5 21.0834C13.5959 21.0834 15.5537 20.3598 17.1522 19.1667H17.25V19.0939C19.5577 17.3248 21.0833 14.5571 21.0833 11.5C21.0833 6.3049 16.6951 1.91669 11.5 1.91669ZM7.73757 18.1384C7.8788 17.4996 8.23355 16.9279 8.74331 16.5178C9.25308 16.1077 9.8874 15.8836 10.5417 15.8825H12.4583C13.1125 15.8838 13.7468 16.108 14.2565 16.518C14.7662 16.9281 15.121 17.4996 15.2624 18.1384C14.1431 18.7872 12.857 19.1667 11.5 19.1667C10.143 19.1667 8.85691 18.7872 7.73757 18.1384ZM16.8762 16.906C16.5107 16.0357 15.8966 15.2925 15.1107 14.7696C14.3249 14.2466 13.4023 13.967 12.4583 13.9658H10.5417C9.59771 13.967 8.67508 14.2466 7.88925 14.7696C7.10342 15.2925 6.48929 16.0357 6.12374 16.906C4.71786 15.5078 3.83332 13.5854 3.83332 11.5C3.83332 7.34373 7.3437 3.83335 11.5 3.83335C15.6563 3.83335 19.1667 7.34373 19.1667 11.5C19.1667 13.5854 18.2821 15.5078 16.8762 16.906Z" fill="#FF7A00"/>
<path d="M11.5 5.75C9.31499 5.75 7.66666 7.39833 7.66666 9.58333C7.66666 11.7683 9.31499 13.4167 11.5 13.4167C13.685 13.4167 15.3333 11.7683 15.3333 9.58333C15.3333 7.39833 13.685 5.75 11.5 5.75ZM11.5 11.5C10.3711 11.5 9.58332 10.7122 9.58332 9.58333C9.58332 8.45442 10.3711 7.66667 11.5 7.66667C12.6289 7.66667 13.4167 8.45442 13.4167 9.58333C13.4167 10.7122 12.6289 11.5 11.5 11.5Z" fill="#FF7A00"/>
</svg>
